<svg width="208" height="129" viewBox="0 0 208 129" fill="none" xmlns="http://www.w3.org/2000/svg">
<path d="M187.969 127.55C209.638 110.087 217.115 56.1242 190.036 59.1672C194.698 2.89349 136.913 -16.613 118.758 19.1083C105.541 -6.63296 70.2338 -2.5502 62.3774 14.2345C38.0626 5.16166 14.8459 22.6428 6.36505 48.0418C-1.8751 72.7201 6.99187 112.674 26.4271 127.239C126.799 127.239 187.969 127.55 187.969 127.55Z" fill="#E1ECFD"/>
<path d="M185.761 127.55C185.761 127.55 161.623 95.4452 146.433 90.5211C131.243 85.5973 145.559 105.154 145.559 105.154C145.559 105.154 118.837 76.7044 108.725 78.3096C97.6524 80.0672 106.044 95.4782 106.044 95.4782C106.044 95.4782 98.5155 88.9089 86.1349 88.9089C73.7544 88.9089 95.7041 126.829 95.7041 126.829L185.761 127.55Z" fill="#86B1F2"/>
<path d="M106.656 126.829C106.656 126.829 92.2246 82.6454 71.7905 87.7548C55.2312 91.8954 67.0044 114.127 65.995 113.116C64.9855 112.105 56.1041 97.0158 41.7337 97.0158C27.3634 97.0158 46.1449 117.381 46.1449 117.381C46.1449 117.381 15.5275 107.807 13.1301 117.861C11.1403 126.205 22.2681 126.829 22.2681 126.829H106.656Z" fill="#9BC1F9"/>
<path d="M191.59 97.0996C194.632 106.688 196.018 116.805 195.615 127.049H196C196.357 117.009 194.993 106.916 191.958 97.3384C191.252 95.1125 190.545 92.5068 188.47 91.1552C188.43 91.1291 188.395 91.1914 188.433 91.2185C190.299 92.5593 190.93 95.0181 191.59 97.0996Z" fill="#466EB6"/>
<path d="M194.263 127.049C190.547 117.516 185.408 108.248 178.668 99.5785C178.601 99.4919 178.448 99.6088 178.515 99.6969C184.881 108.02 190.023 117.212 193.786 127.049H194.263Z" fill="#466EB6"/>
<path d="M192.471 91.896C192.283 92.0582 191.629 92.4371 191.295 93.0763C190.919 93.6665 190.864 94.5168 190.889 94.4931C190.923 94.5196 190.432 93.8108 190.462 92.9018C190.425 92.0119 190.91 90.9218 191.331 90.6302C192.111 89.9258 193.099 90.0984 193.176 90.5621C193.265 91.0263 192.863 91.5174 192.471 91.896Z" fill="#466EB6"/>
<path d="M189.263 98.8646C189.496 98.7783 190.143 98.3879 190.863 98.4041C191.561 98.3594 192.331 98.7217 192.299 98.732C192.305 98.7751 191.923 98.0019 191.113 97.5896C190.353 97.127 189.166 97.0254 188.708 97.2534C187.714 97.5975 187.388 98.5469 187.757 98.8382C188.12 99.1403 188.743 99.0252 189.263 98.8646Z" fill="#466EB6"/>
<path d="M190.295 102.574C190.528 102.487 191.175 102.097 191.895 102.113C192.593 102.068 193.364 102.431 193.331 102.441C193.337 102.484 192.955 101.711 192.145 101.298C191.385 100.836 190.198 100.734 189.74 100.962C188.747 101.306 188.42 102.256 188.789 102.547C189.152 102.849 189.775 102.734 190.295 102.574Z" fill="#466EB6"/>
<path d="M181.568 108.191C181.801 108.104 182.448 107.714 183.168 107.73C183.866 107.685 184.636 108.048 184.604 108.058C184.61 108.101 184.228 107.328 183.418 106.915C182.658 106.453 181.47 106.351 181.012 106.579C180.019 106.923 179.693 107.873 180.061 108.164C180.424 108.466 181.048 108.351 181.568 108.191Z" fill="#466EB6"/>
<path d="M178.938 104.229C179.171 104.143 179.818 103.752 180.538 103.769C181.236 103.724 182.006 104.086 181.974 104.096C181.98 104.139 181.598 103.366 180.788 102.954C180.028 102.491 178.841 102.39 178.383 102.618C177.39 102.962 177.063 103.911 177.432 104.203C177.795 104.505 178.418 104.39 178.938 104.229Z" fill="#466EB6"/>
<path d="M194.145 96.2282C193.934 96.3588 193.228 96.6297 192.798 97.2082C192.334 97.7317 192.145 98.5626 192.173 98.5431C192.203 98.5748 191.829 97.7973 192.003 96.9044C192.106 96.0199 192.756 95.0198 193.218 94.7985C194.099 94.226 195.048 94.5523 195.05 95.0225C195.065 95.4947 194.591 95.9163 194.145 96.2282Z" fill="#466EB6"/>
<path d="M195.951 100.605C195.684 100.666 194.806 100.672 194.232 101.174C193.621 101.594 193.313 102.509 193.348 102.499C193.382 102.551 193.007 101.444 193.303 100.447C193.514 99.4277 194.395 98.5179 194.973 98.4608C196.092 98.1715 197.203 98.9957 197.16 99.5634C197.132 100.139 196.519 100.432 195.951 100.605Z" fill="#466EB6"/>
<path d="M197.402 106.889C197.129 106.905 196.263 106.763 195.612 107.161C194.94 107.472 194.482 108.322 194.519 108.318C194.543 108.375 194.36 107.221 194.819 106.287C195.198 105.318 196.22 104.57 196.799 104.611C197.95 104.514 198.907 105.514 198.77 106.066C198.645 106.629 197.992 106.814 197.402 106.889Z" fill="#466EB6"/>
<path d="M187.724 108.397C187.51 108.462 186.797 108.517 186.358 108.958C185.885 109.334 185.687 110.097 185.715 110.086C185.745 110.126 185.377 109.247 185.562 108.419C185.675 107.578 186.34 106.788 186.807 106.709C187.7 106.41 188.651 107.017 188.649 107.481C188.659 107.951 188.177 108.224 187.724 108.397Z" fill="#466EB6"/>
<path d="M187.315 91.8918C187.449 91.8306 187.815 91.5712 188.241 91.5493C188.652 91.4923 189.124 91.6729 189.105 91.6803C189.111 91.7056 188.851 91.2648 188.354 91.0564C187.884 90.8161 187.177 90.808 186.916 90.963C186.343 91.21 186.192 91.7859 186.422 91.9421C186.65 92.105 187.014 92.0096 187.315 91.8918Z" fill="#466EB6"/>
<path d="M188.99 89.8365C188.947 89.9774 188.739 90.3749 188.774 90.8012C188.771 91.2165 189.013 91.6607 189.018 91.6409C189.043 91.6433 188.573 91.4436 188.301 90.978C188 90.5433 187.899 89.8428 188.018 89.5633C188.186 88.9624 188.736 88.7357 188.921 88.9441C189.113 89.1487 189.067 89.5225 188.99 89.8365Z" fill="#466EB6"/>
<path d="M177.287 100.47C177.421 100.408 177.787 100.149 178.214 100.127C178.624 100.07 179.096 100.251 179.077 100.258C179.083 100.283 178.823 99.8427 178.326 99.6343C177.856 99.394 177.149 99.3859 176.888 99.5408C176.316 99.7879 176.164 100.364 176.395 100.52C176.623 100.683 176.986 100.587 177.287 100.47Z" fill="#466EB6"/>
<path d="M179.184 98.4524C179.13 98.5893 178.89 98.9683 178.889 99.3961C178.853 99.8099 179.057 100.272 179.064 100.253C179.089 100.257 178.637 100.02 178.404 99.5334C178.14 99.0758 178.096 98.3692 178.237 98.1003C178.455 97.5153 179.021 97.3346 179.189 97.5573C179.363 97.7768 179.286 98.1456 179.184 98.4524Z" fill="#466EB6"/>
<path d="M129.304 104.239C134.514 109.419 139.056 115.291 142.452 121.821C143.405 123.654 144.212 125.54 145.043 127.429C145.153 127.68 145.581 127.502 145.488 127.242C145.395 126.983 145.302 126.724 145.21 126.465C145.155 126.313 144.88 126.321 144.904 126.506C144.939 126.773 144.975 127.04 145.01 127.307C145.169 127.285 145.328 127.263 145.488 127.242C144.196 123.828 142.404 120.537 140.475 117.447C134.695 108.185 128.709 103.647 129.304 104.239Z" fill="#466EB6"/>
<path d="M135.77 107.05C135.616 107.226 135.055 107.666 134.828 108.307C134.555 108.907 134.615 109.709 134.635 109.683C134.671 109.703 134.118 109.107 134.027 108.254C133.875 107.429 134.184 106.347 134.539 106.019C135.174 105.259 136.119 105.29 136.252 105.712C136.396 106.134 136.085 106.645 135.77 107.05Z" fill="#466EB6"/>
<path d="M132.232 103.259C132.078 103.435 131.518 103.875 131.291 104.516C131.017 105.117 131.077 105.918 131.097 105.892C131.133 105.912 130.581 105.316 130.49 104.463C130.338 103.638 130.647 102.556 131.001 102.228C131.637 101.468 132.582 101.498 132.714 101.921C132.858 102.343 132.548 102.854 132.232 103.259Z" fill="#466EB6"/>
<path d="M128.409 106.567C128.609 106.446 129.139 105.97 129.809 105.857C130.447 105.692 131.224 105.891 131.196 105.907C131.209 105.946 130.719 105.297 129.896 105.059C129.111 104.765 127.993 104.881 127.61 105.173C126.751 105.668 126.616 106.605 127.009 106.809C127.398 107.025 127.955 106.808 128.409 106.567Z" fill="#466EB6"/>
<path d="M132.162 110.681C132.362 110.56 132.892 110.084 133.562 109.971C134.2 109.806 134.977 110.005 134.949 110.021C134.962 110.06 134.472 109.411 133.649 109.173C132.864 108.879 131.747 108.995 131.363 109.287C130.504 109.782 130.369 110.719 130.762 110.923C131.151 111.138 131.708 110.922 132.162 110.681Z" fill="#466EB6"/>
<path d="M134.907 114.195C135.107 114.074 135.637 113.597 136.307 113.485C136.945 113.32 137.722 113.519 137.694 113.534C137.707 113.573 137.217 112.925 136.394 112.687C135.609 112.393 134.492 112.509 134.108 112.801C133.249 113.295 133.114 114.232 133.507 114.437C133.896 114.652 134.453 114.435 134.907 114.195Z" fill="#466EB6"/>
<path d="M137.191 117.709C137.392 117.588 137.922 117.111 138.592 116.999C139.23 116.834 140.007 117.033 139.979 117.049C139.992 117.087 139.502 116.439 138.679 116.201C137.894 115.907 136.776 116.023 136.392 116.315C135.534 116.81 135.399 117.746 135.792 117.951C136.181 118.166 136.738 117.949 137.191 117.709Z" fill="#466EB6"/>
<path d="M138.699 110.887C138.545 111.063 137.984 111.503 137.757 112.144C137.484 112.744 137.544 113.545 137.564 113.52C137.6 113.54 137.048 112.943 136.956 112.091C136.804 111.265 137.113 110.184 137.468 109.856C138.104 109.096 139.048 109.126 139.181 109.549C139.325 109.97 139.015 110.482 138.699 110.887Z" fill="#466EB6"/>
<path d="M141.296 114.747C141.142 114.924 140.582 115.364 140.355 116.004C140.081 116.605 140.141 117.406 140.161 117.381C140.197 117.401 139.645 116.804 139.554 115.952C139.402 115.126 139.711 114.044 140.065 113.717C140.701 112.956 141.646 112.987 141.779 113.41C141.923 113.831 141.612 114.342 141.296 114.747Z" fill="#466EB6"/>
<path d="M131.774 121.024C132.075 121.211 132.839 121.852 133.23 122.25C134.303 123.34 135.275 124.892 135.806 126.644C135.839 126.755 135.85 126.857 135.953 126.922C135.978 126.938 136.015 126.928 136.03 126.902C136.092 126.785 136.04 126.677 136.005 126.554C135.756 125.675 135.244 124.571 134.472 123.498C133.167 121.682 132.199 121.262 131.78 121.013C131.774 121.009 131.768 121.02 131.774 121.024Z" fill="#466EB6"/>
<path d="M130.712 122.107C130.883 122.029 131.35 121.698 131.893 121.67C132.417 121.597 133.019 121.827 132.995 121.837C133.002 121.869 132.67 121.308 132.037 121.042C131.438 120.735 130.536 120.725 130.203 120.922C129.473 121.238 129.28 121.972 129.574 122.171C129.865 122.379 130.329 122.257 130.712 122.107Z" fill="#466EB6"/>
<path d="M132.848 119.486C132.793 119.666 132.528 120.173 132.572 120.716C132.569 121.246 132.877 121.812 132.883 121.787C132.916 121.79 132.316 121.535 131.969 120.942C131.586 120.387 131.457 119.494 131.608 119.138C131.823 118.372 132.525 118.083 132.761 118.348C133.005 118.609 132.946 119.086 132.848 119.486Z" fill="#466EB6"/>
<path d="M11.7082 85.6802C12.4677 86.138 13.1639 86.7551 13.8569 87.3063C17.6282 90.3059 21.4544 93.2086 26.6566 99.3111C33.6122 107.471 38.8078 116.736 41.9762 126.856C42.0896 127.218 42.6612 127.063 42.5458 126.698C40.4845 120.189 37.5611 113.962 33.8845 108.211C23.9517 92.6732 11.5743 85.5995 11.7082 85.6802Z" fill="#466EB6"/>
<path d="M30.4889 87.5517C31.3202 93.0333 34.1766 97.9624 36.1456 103.078C41.4124 116.762 42.277 127.184 42.7508 128.339C42.7984 128.454 42.9492 128.434 42.9645 128.31C43.0957 127.237 41.9346 119.732 39.6465 111.927C35.8421 98.9485 31.8593 93.8793 30.6688 87.5021C30.6466 87.3826 30.4713 87.435 30.4889 87.5517Z" fill="#466EB6"/>
<path d="M17.9662 85.9598C17.8242 86.244 17.2379 87.0146 17.1586 87.9341C17.0047 88.817 17.3578 89.8488 17.3755 89.8086C17.4293 89.8229 16.5 89.2283 16.0886 88.1393C15.6066 87.1066 15.6425 85.5794 15.9961 85.0276C16.5713 83.8102 17.8233 83.5265 18.1421 84.0364C18.4756 84.5409 18.2427 85.3193 17.9662 85.9598Z" fill="#466EB6"/>
<path d="M26.5974 94.6377C26.4905 94.9357 26.0015 95.7673 26.0316 96.6861C25.9837 97.5777 26.4548 98.5564 26.4675 98.5147C26.5225 98.5223 25.5331 98.0442 24.9976 97.0158C24.3988 96.0513 24.2541 94.5365 24.5387 93.9488C24.9639 92.6766 26.1687 92.2477 26.5443 92.7145C26.9337 93.1739 26.7952 93.9715 26.5974 94.6377Z" fill="#466EB6"/>
<path d="M37.5842 98.9111C37.3631 98.9871 36.658 99.0888 36.1422 99.531C35.6064 99.9153 35.26 100.64 35.29 100.628C35.311 100.663 35.1292 99.8704 35.4745 99.0856C35.7535 98.2941 36.5595 97.5105 37.0298 97.4033C37.9595 97.061 38.7634 97.559 38.668 97.9917C38.5832 98.4289 38.0596 98.7174 37.5842 98.9111Z" fill="#466EB6"/>
<path d="M38.6757 101.586C38.4546 101.662 37.7495 101.763 37.2338 102.206C36.698 102.59 36.3516 103.314 36.3816 103.302C36.4025 103.338 36.2208 102.545 36.5659 101.76C36.845 100.969 37.6511 100.185 38.1213 100.078C39.051 99.7356 39.8549 100.234 39.7595 100.666C39.6746 101.103 39.151 101.392 38.6757 101.586Z" fill="#466EB6"/>
<path d="M14.3089 91.638C14.4924 91.4101 14.9128 90.6237 15.6516 90.2053C16.3313 89.7386 17.3296 89.6401 17.3027 89.6703C17.3352 89.71 16.4823 89.1579 15.4139 89.2294C14.3656 89.22 13.102 89.8345 12.7755 90.342C11.9771 91.2903 12.2187 92.449 12.7673 92.5212C13.3168 92.608 13.8789 92.1149 14.3089 91.638Z" fill="#466EB6"/>
<path d="M19.5919 96.522C19.7754 96.2941 20.1957 95.5077 20.9345 95.0894C21.6143 94.6226 22.6125 94.5241 22.5857 94.5543C22.6182 94.5941 21.7653 94.042 20.6968 94.1135C19.6486 94.1042 18.3849 94.7186 18.0585 95.2263C17.2601 96.1743 17.5017 97.333 18.0503 97.4052C18.5997 97.492 19.1618 96.9989 19.5919 96.522Z" fill="#466EB6"/>
<path d="M28.9663 92.1432C29.2583 92.1583 30.1408 92.0373 30.9128 92.3907C31.6891 92.6678 32.3549 93.4192 32.3146 93.4152C32.3015 93.4648 32.2473 92.4492 31.5623 91.6252C30.9544 90.77 29.7159 90.1061 29.1138 90.1395C27.8787 90.0488 27.0837 90.9248 27.3472 91.412C27.5996 91.9084 28.3284 92.0745 28.9663 92.1432Z" fill="#466EB6"/>
<path d="M30.5139 95.892C30.8058 95.9069 31.6884 95.7859 32.4604 96.1393C33.2367 96.4164 33.9025 97.1678 33.8622 97.1638C33.8492 97.2134 33.7949 96.198 33.1099 95.3739C32.502 94.5185 31.2635 93.8549 30.6614 93.8882C29.4262 93.7976 28.6313 94.6736 28.8948 95.1607C29.1473 95.657 29.8759 95.8232 30.5139 95.892Z" fill="#466EB6"/>
<path d="M26.318 104.049C26.5014 103.821 26.9217 103.034 27.6606 102.616C28.3404 102.149 29.3387 102.051 29.3117 102.081C29.3443 102.121 28.4913 101.569 27.423 101.64C26.3747 101.631 25.1109 102.245 24.7845 102.753C23.9862 103.701 24.2278 104.86 24.7764 104.932C25.3257 105.019 25.8879 104.526 26.318 104.049Z" fill="#466EB6"/>
<path d="M11.1975 87.5819C11.3428 87.4631 11.7105 87.0249 12.2297 86.8599C12.718 86.6569 13.3579 86.727 13.3371 86.7424C13.3522 86.7716 12.8895 86.3122 12.2092 86.2158C11.5522 86.0711 10.6776 86.2899 10.4056 86.5654C9.77922 87.0552 9.77808 87.8146 10.113 87.9326C10.4465 88.0598 10.8646 87.8244 11.1975 87.5819Z" fill="#466EB6"/>
<path d="M12.6006 84.5052C12.593 84.6928 12.4643 85.2505 12.6447 85.7651C12.7762 86.278 13.2169 86.748 13.2166 86.7219C13.2491 86.7165 12.6042 86.6224 12.1184 86.1361C11.608 85.6972 11.2568 84.8659 11.3132 84.4827C11.3275 83.6869 11.933 83.2294 12.2284 83.4265C12.5304 83.617 12.5939 84.093 12.6006 84.5052Z" fill="#466EB6"/>
<path d="M2.00766 111.792C9.33295 114.035 15.6732 118.666 21.7691 123.166C25.8797 126.2 25.5342 126.776 26.3941 127.275C26.5334 127.356 26.7134 127.222 26.6681 127.064C26.4468 126.294 25.6079 125.641 25.0379 125.114C24.3746 124.501 23.6672 123.935 22.9429 123.396C21.3931 122.241 19.783 121.161 18.1863 120.073C14.9382 117.86 11.6152 115.727 8.06102 114.035C6.11257 113.108 4.09973 112.324 2.02417 111.732C1.9856 111.721 1.96941 111.78 2.00766 111.792Z" fill="#466EB6"/>
<path d="M9.19037 110.751C9.08347 111.049 8.5946 111.881 8.62462 112.8C8.57679 113.691 9.04781 114.67 9.06056 114.628C9.11551 114.636 8.12606 114.158 7.59062 113.129C6.99183 112.165 6.84712 110.65 7.13166 110.062C7.55684 108.79 8.76172 108.361 9.13727 108.828C9.5266 109.287 9.38817 110.085 9.19037 110.751Z" fill="#466EB6"/>
<path d="M15.3327 114.367C15.2258 114.665 14.7369 115.497 14.7669 116.415C14.7191 117.307 15.1901 118.286 15.2029 118.244C15.2578 118.252 14.2684 117.773 13.7328 116.745C13.1342 115.781 12.9894 114.266 13.274 113.678C13.6992 112.406 14.904 111.977 15.2796 112.444C15.6689 112.903 15.5304 113.701 15.3327 114.367Z" fill="#466EB6"/>
<path d="M21.4627 118.629C21.3557 118.927 20.8668 119.758 20.8969 120.677C20.8489 121.569 21.32 122.547 21.3327 122.506C21.3876 122.513 20.3982 122.035 19.8628 121.007C19.2641 120.042 19.1194 118.528 19.4038 117.94C19.8291 116.668 21.0339 116.239 21.4095 116.706C21.7989 117.165 21.6604 117.963 21.4627 118.629Z" fill="#466EB6"/>
<path d="M6.05391 116.543C6.23733 116.315 6.65767 115.528 7.39656 115.11C8.07622 114.643 9.07453 114.545 9.04764 114.575C9.08013 114.615 8.22723 114.063 7.15886 114.134C6.11055 114.125 4.84689 114.739 4.52038 115.247C3.72202 116.195 3.9636 117.354 4.5122 117.426C5.06172 117.513 5.62386 117.019 6.05391 116.543Z" fill="#466EB6"/>
<path d="M12.4483 120.276C12.6317 120.048 13.052 119.261 13.791 118.843C14.4706 118.376 15.4689 118.278 15.442 118.308C15.4745 118.348 14.6216 117.796 13.5533 117.867C12.505 117.858 11.2413 118.472 10.9148 118.98C10.1164 119.928 10.3581 121.087 10.9066 121.159C11.4561 121.246 12.0182 120.752 12.4483 120.276Z" fill="#466EB6"/>
<path d="M1.30736 113.049C1.45265 112.93 1.82035 112.492 2.33945 112.327C2.82787 112.124 3.46771 112.194 3.44683 112.21C3.46209 112.239 2.9993 111.779 2.31898 111.683C1.66204 111.538 0.787343 111.757 0.51538 112.033C-0.111035 112.522 -0.112214 113.282 0.22277 113.4C0.556352 113.527 0.974373 113.292 1.30736 113.049Z" fill="#466EB6"/>
<path d="M2.71044 109.972C2.70288 110.16 2.57422 110.718 2.75462 111.232C2.88612 111.745 3.32671 112.215 3.32652 112.189C3.35894 112.184 2.71402 112.09 2.22818 111.603C1.71788 111.164 1.36661 110.333 1.42306 109.95C1.43734 109.154 2.04284 108.697 2.33825 108.894C2.6403 109.084 2.70373 109.56 2.71044 109.972Z" fill="#466EB6"/>
<path d="M156.608 123.265C156.713 122.513 156.477 121.219 155.89 119.196C157.054 119.199 158.033 118.682 159.223 118.701C159.548 120.603 160.051 123.728 160.051 123.728L160.105 126.198L151.82 126.26C151.82 126.26 151.889 126.296 154.331 124.751C154.512 124.636 156.507 123.991 156.608 123.265Z" fill="#F7A491"/>
<path d="M160.144 126.833H151.592C151.276 126.804 151.199 126.546 151.308 126.387C151.534 126.059 153.202 125.271 154.324 124.749C156.291 124.956 159.748 124.145 160.059 123.689C160.598 125.2 160.32 126.794 160.144 126.833Z" fill="#FAE0B2"/>
<path d="M166.928 123.265C167.033 122.513 167.211 121.571 166.95 119.064C168.114 119.067 169.222 118.848 170.412 118.866C170.412 120.823 170.371 123.728 170.371 123.728L170.425 126.198L162.14 126.26C162.14 126.26 162.209 126.296 164.652 124.751C164.832 124.636 166.827 123.991 166.928 123.265Z" fill="#F7A491"/>
<path d="M170.465 126.833H161.912C161.596 126.804 161.519 126.546 161.629 126.387C161.854 126.059 163.523 125.271 164.644 124.749C166.611 124.956 170.068 124.145 170.379 123.689C170.918 125.2 170.641 126.794 170.465 126.833Z" fill="#FAE0B2"/>
<path d="M158.894 69.3854L161.421 70.7968L166.558 78.6613L157.372 100.312C157.372 100.312 158.406 103.568 158.743 105.195C159.096 106.897 159.961 121.505 159.961 121.505L156.042 121.571C156.042 121.571 152.319 106.02 151.689 100.972C150.923 94.8428 155.585 80.2451 155.585 80.2451C156.454 77.2666 158.328 71.1395 158.328 71.1395C158.328 71.1395 158.787 69.6467 158.894 69.3854Z" fill="#184655"/>
<path d="M167.691 66.4314C167.691 66.4314 167.429 68.2815 168.474 70.3917C169.111 71.678 170.212 72.6867 171 74.2626C172.491 77.2447 173.301 81.4809 172.742 84.2037C172.742 84.2037 169.658 95.994 169.781 100.303C169.826 101.892 170.37 104.755 170.719 106.69C171.027 108.401 170.918 121.095 170.918 121.095L166.754 121.175L163.403 100.356L161.986 81.8504L158.895 69.3857L167.691 66.4314Z" fill="#466EB6"/>
<path d="M157.961 38.9271C158.365 37.016 158.782 35.0978 160.679 33.7213C162.213 32.6073 163.863 32.2891 165.611 32.924C170.565 34.7231 167.901 38.6597 174.048 42.8555C175.958 44.1592 176.684 44.6138 178.054 46.3512C179.973 48.783 181.022 52.046 180.057 54.7322C178.063 60.2873 171.882 61.8923 168.649 60.7144C162.63 58.5221 157.616 50.8794 157.283 48.7938C156.926 46.5617 157.701 40.1574 157.961 38.9271Z" fill="#13375B"/>
<path d="M160.799 53.4248L157.824 50.0041C157.824 50.0041 154.414 51.6987 150.455 53.2881C149.465 51.3818 147.98 45.1854 147.899 44.8893C147.817 44.5923 150.108 41.0046 149.634 40.8921C149.16 40.7798 148.453 42.81 147.957 42.5802C147.461 42.3506 146.363 37.525 146.048 37.7725C145.459 38.2357 146.607 40.7686 146.299 40.9366C145.992 41.1047 145.355 38.1428 144.771 38.2432C144.186 38.3437 145.636 40.9518 145.455 41.189C145.274 41.4261 143.747 38.9723 143.388 39.5107C143.193 39.8029 144.801 41.6507 144.447 41.8349C144.092 42.0191 142.622 40.8359 142.426 41.1909C142.23 41.5457 143.81 41.9909 144.215 42.9272C144.619 43.8634 145.41 44.2544 145.604 46.0005C145.798 47.7446 146.139 57.0482 147.996 57.8723C149.617 58.5921 160.799 53.4248 160.799 53.4248Z" fill="#F7A491"/>
<path d="M160.322 49.8738C161.069 48.5603 160.485 47.1501 160.485 47.1501C158.219 48.5325 154.788 50.8876 154.788 50.8876C155.735 54.3565 156.614 56.1242 156.614 56.1242C158.717 54.8774 158.938 54.834 158.938 54.834C159.879 50.3335 160.322 49.8738 160.322 49.8738Z" fill="#E8BD70"/>
<path d="M160.485 47.1502C162.199 46.6993 162.546 46.9247 165.725 46.9722C170.595 47.0417 173.054 45.9182 175.861 58.4154C175.861 58.4154 173.618 59.3035 171.386 59.1493C171.097 57.7083 171.114 55.1474 170.596 56.7406C169.814 59.1476 169.24 61.5776 168.856 64.0791C168.612 65.5621 168.081 67.4602 168.36 68.9711C168.36 68.9711 165.043 69.6548 162.51 69.7662C162.503 69.7666 162.496 69.7669 162.488 69.7658C161.264 69.7346 160.01 69.6263 158.894 69.3855C158.894 69.3855 158.393 58.873 158.132 58.4311C155.436 53.8559 160.485 47.1502 160.485 47.1502Z" fill="#F7CC7F"/>
<path d="M164.962 42.2914C164.962 42.2914 165.35 45.4275 165.578 46.5161C165.818 47.6554 166.178 51.2431 163.818 51.8255C161.459 52.4081 162.188 47.9219 162.149 46.7636C162.11 45.6052 161.442 41.566 161.442 41.566L164.962 42.2914Z" fill="#F7A491"/>
<path d="M165.09 43.292C165.066 43.3065 165.044 43.3219 165.019 43.3361C163.715 44.0846 162.58 43.9665 161.729 43.3839C161.576 42.3813 161.442 41.566 161.442 41.566L164.962 42.2914C164.962 42.2914 165.014 42.7093 165.09 43.292Z" fill="#F47458"/>
<path d="M164.253 34.1248C164.253 34.1248 165.635 34.514 166.432 35.8887C167.23 37.2634 167.627 41.2115 164.693 42.8962C161.758 44.5809 159.675 41.8817 159.764 39.3566C159.853 36.8314 160.555 33.4911 164.253 34.1248Z" fill="#F7A491"/>
<path d="M159.116 38.273C159.083 38.9293 159.364 39.4769 159.742 39.4959C160.121 39.5151 160.454 38.9987 160.486 38.3423C160.519 37.686 160.238 37.1383 159.86 37.1192C159.481 37.1 159.148 37.6165 159.116 38.273Z" fill="#F7A491"/>
<path d="M163.837 34.0209C163.837 34.0209 165.419 38.1502 166.967 38.5903C168.515 39.0305 168.392 41.0617 168.392 41.0617C168.392 41.0617 168.59 36.3666 167.176 35.2157C165.762 34.0648 163.837 34.0209 163.837 34.0209Z" fill="#13375B"/>
<path d="M166.303 39.3982C166.065 40.0436 166.221 40.6991 166.653 40.8621C167.085 41.0251 167.629 40.6341 167.868 39.9885C168.106 39.3431 167.95 38.6877 167.518 38.5246C167.086 38.3617 166.542 38.7527 166.303 39.3982Z" fill="#F7A491"/>
<path d="M166.27 65.746C166.27 65.746 166.568 65.4491 166.75 65.8632C167.949 68.5905 172.002 79.6755 167.32 82.8815C161.927 86.5739 162.226 80.6855 165.795 78.9762C169.365 77.2671 166.27 65.746 166.27 65.746Z" fill="#F47458"/>
<path d="M163.011 49.8738C163.011 49.8738 157.791 53.9061 157.914 59.0202C157.994 62.3454 162.064 68.0356 165.705 67.2813C167.093 66.9939 169.181 65.5716 169.263 63.6176C169.349 61.563 167.39 58.9796 167.39 58.9796L171.408 49.0087C171.603 48.7435 173.309 46.4844 173.26 46.4541C172.886 46.2242 171.345 45.8542 170.019 48.3912C169.806 48.8004 168.567 50.5988 167.732 50.8134C165.635 51.3528 163.011 49.8738 163.011 49.8738Z" fill="#F47458"/>
<path d="M163.011 49.8739C163.011 49.8739 165.635 51.3528 167.732 50.8134C168.028 50.7373 168.375 50.4619 168.709 50.1199C167.844 51.3688 166.718 52.3576 166.718 52.3576C165.008 52.1831 163.251 51.3995 162.058 50.7159C162.622 50.1746 163.011 49.8739 163.011 49.8739Z" fill="#B75742"/>
<path d="M161.146 44.6556C161.146 44.6556 161.016 46.7636 161.826 47.31C161.826 47.31 161.475 49.0921 161.668 49.3982C161.861 49.7042 163.035 51.346 166.905 51.8259C166.905 51.8259 169.975 49.1901 169.633 47.1553L168.417 45.4001C168.417 45.4001 168.021 43.3257 167.176 42.7128L166.114 44.8932C166.114 44.8932 163.761 45.306 163.343 45.8749L161.146 44.6556Z" fill="#F47458"/>
<path d="M166.279 58.8344C166.279 58.8344 169.592 58.609 170.256 61.0347C170.921 63.4606 170.17 63.8028 170.17 63.8028C170.17 63.8028 174.031 62.0765 174.467 63.2385C174.676 63.7963 166.455 67.0412 166.455 67.0412L166.279 58.8344Z" fill="#F47458"/>
<path d="M158.823 67.3047C158.766 67.2944 158.53 67.1828 158.327 67.1231C158.047 67.0384 157.789 67.0023 157.789 67.0023C157.789 67.0023 157.71 66.8725 157.532 66.7082C157.458 66.6402 157.321 66.5797 157.238 66.5036C157.154 66.4243 157.097 66.3125 157.016 66.2397C156.804 66.0533 156.586 65.9556 156.469 66.0611C156.373 66.1481 157.474 67.4286 157.474 67.4286C158.74 67.8443 159.861 68.919 163.417 67.9445C165.332 67.75 174.78 66.3406 175.226 65.5141C175.477 65.0505 175.451 60.8296 175.359 57.6014C174.456 57.7012 172.54 57.9092 171.476 58.0011C171.751 60.1038 171.989 62.8512 171.787 63.1133C171.735 63.1817 171.588 63.2884 164.916 65.1293C164.748 65.1741 164.576 65.2231 164.401 65.2714C163.932 65.4005 163.429 65.5386 162.897 65.6833L161.378 65.013C161.378 65.013 158.832 64.384 158.667 64.6439C158.593 64.7631 158.778 64.8941 159.02 65.0132L159.028 65.0155C159.063 65.0325 159.099 65.0494 159.135 65.0665C159.137 65.0674 159.14 65.0681 159.14 65.0681C159.403 65.1885 159.69 65.2864 159.752 65.3337C159.823 65.3867 159.962 65.5002 160.068 65.6388C158.312 65.7745 158.504 65.5864 158 65.3885C157.873 65.3368 157.725 65.33 157.606 65.2809C157.403 65.1962 157.276 65.0181 157.118 64.9562C156.885 64.8676 156.658 64.9156 156.602 64.9468C156.53 64.9841 156.606 65.0965 156.776 65.2504C157.808 66.1566 158.865 66.2766 159.158 66.4562C159.355 66.5773 158.939 66.5315 158.351 66.2706C158.204 66.2068 157.987 66.1976 157.801 66.0855C157.676 66.0124 157.582 65.8859 157.46 65.8111C157.348 65.742 157.223 65.7047 157.128 65.6519C157.001 65.5837 156.847 65.4215 156.744 65.3748C156.361 65.2019 156.145 65.2091 156.088 65.2321C155.969 65.2847 157.555 66.5614 157.555 66.5614C157.555 66.5614 158.744 67.1418 159.022 67.2313C159.022 67.2313 159.165 67.3596 158.823 67.3047Z" fill="#F7A491"/>
<path d="M175.384 58.5817C174.644 58.8189 173.146 59.2196 171.616 59.1616C171.572 58.7661 171.525 58.3735 171.476 58.0011C172.54 57.9092 174.456 57.7012 175.359 57.6014C175.368 57.9199 175.376 58.2484 175.384 58.5817Z" fill="#F7CC7F"/>
<path d="M56.4023 118.592C56.4023 118.592 56.7343 122.222 56.5159 123.406C56.4867 123.564 56.4223 123.765 56.3474 123.986C56.1225 124.65 56.7385 126.677 56.7385 126.677L64.9999 126.707C65.4498 126.709 65.1491 126.423 64.783 126.161C64.1836 125.732 63.701 125.45 61.7929 124.556C61.6685 124.498 61.2146 124.217 61.0508 124.12C60.636 123.874 60.2174 123.484 59.8565 123.092C59.2553 122.439 59.1638 119.24 59.1638 119.24L56.4023 118.592Z" fill="#F7A491"/>
<path d="M61.0498 124.12C58.8722 124.707 57.2527 124.346 56.345 123.993C56.1202 124.656 55.6972 126.897 55.9495 126.897C58.0212 126.897 59.7746 127.289 65.7104 127.196C65.923 127.192 65.897 126.461 65.7584 126.3C65.3756 125.854 61.2137 124.217 61.0498 124.12Z" fill="#F7CC7F"/>
<path d="M46.041 75.4989C46.041 75.4989 46.1585 80.6807 47.6416 83.999C49.086 87.231 55.9992 95.202 57.8366 99.8545C57.2686 102.479 55.7073 106.167 55.8203 109.075C55.9484 112.372 55.7567 121.093 55.7567 121.093L59.4667 121.211L64.3336 98.7046L56.9994 74.4214L53.6715 68.5248L46.041 75.4989Z" fill="#3C8F7C"/>
<path d="M30.1913 113.431C30.1913 113.431 27.9119 116.563 26.9077 117.355C26.37 117.779 24.9096 118.348 24.7556 119.05C24.6017 119.751 31.3689 125.954 31.3689 125.954C31.7271 126.271 31.687 125.832 31.5783 125.365C31.4005 124.601 31.2131 124.037 30.3154 121.982C30.2569 121.848 30.0911 121.305 30.0284 121.113C29.8697 120.624 29.8092 120.018 29.7954 119.452C29.7727 118.508 31.9422 115.889 31.9422 115.889L30.1913 113.431Z" fill="#F7A491"/>
<path d="M30.028 121.111C27.8775 120.05 26.8372 118.624 26.3594 117.704C25.7156 118.075 23.9833 118.866 24.1355 119.088C25.3326 120.827 26.5745 122.989 31.3804 127.086C31.5525 127.233 32.2578 126.388 32.2602 126.162C32.2668 125.537 30.0908 121.304 30.028 121.111Z" fill="#F7CC7F"/>
<path d="M57.4819 38.4403C56.8418 34.2622 53.0666 31.2579 49.1185 33.2852C48.2305 33.7412 47.0284 34.6665 46.415 35.4547C44.7285 37.6221 44.3198 40.3084 42.5319 42.3928C40.9905 44.1899 36.8761 43.8509 34.9547 45.233C33.0334 46.6152 31.6866 49.0933 31.6866 52.0575C31.6866 55.3727 32.4343 58.8918 34.9995 60.9876C37.5647 63.0834 41.2105 63.6058 44.4003 62.7176C47.5901 61.8293 50.3268 59.6532 52.2965 56.9886C54.2664 54.3239 55.6592 51.4029 56.6407 48.2368C57.7362 44.7029 57.8955 41.1408 57.4819 38.4403Z" fill="#B75742"/>
<path d="M43.0355 44.1075C43.0355 44.1075 38.1885 35.4452 37.0093 33.6039C35.8301 31.7626 32.7582 24.4455 32.6485 24.1572C32.5387 23.8688 34.7639 20.406 34.2672 20.2875C33.7704 20.169 33.2209 22.1131 32.6909 21.8808C32.161 21.6486 30.6129 16.9682 30.311 17.2004C29.7459 17.6348 31.1453 20.1038 30.8441 20.2593C30.5429 20.4149 29.6305 17.543 29.0388 17.6275C28.4474 17.712 30.1639 20.2598 29.9985 20.4848C29.833 20.7098 28.0509 18.3093 27.7285 18.821C27.5534 19.099 29.367 20.9165 29.0187 21.0867C28.6704 21.257 27.0571 20.0838 26.8863 20.422C26.7154 20.7604 28.3783 21.2237 28.8755 22.1358C29.3728 23.0479 30.2196 23.4422 30.5713 25.1313C30.923 26.8203 31.4485 32.9325 33.2499 35.9821C35.0513 39.0315 39.0127 45.7807 39.0127 45.7807L43.0355 44.1075Z" fill="#F79C8D"/>
<path d="M72.0215 78.24C71.4876 77.7782 70.3457 76.7681 70.4497 76.6634C70.5846 76.5271 71.0829 76.6245 71.2408 76.6847C71.3986 76.7449 71.5891 76.8001 71.747 76.8604C71.9049 76.9205 72.0801 76.8529 72.1687 76.6615C72.2574 76.4702 71.6801 76.0931 71.4548 76.0027C70.7518 75.7205 68.7222 75.3456 68.5091 75.2967C68.257 75.2388 65.3662 71.7123 64.2799 70.583C64.2799 70.583 64.2801 70.5828 64.2803 70.5826C62.557 68.6807 60.881 66.6395 60.6994 66.4371L55.9793 56.5073L51.6716 56.8237C51.6716 56.8237 56.7554 67.9173 57.0728 68.4432C57.2239 68.6933 61.5589 72.791 61.5606 72.7895C63.8221 74.6725 65.8197 76.3261 66.1943 76.6548C66.1943 76.6548 67.0512 77.9391 67.5486 78.7892C67.8674 79.334 68.3093 79.7681 68.6324 80.0673C69.5269 79.2586 70.6627 79.0133 71.7178 78.4444C71.8236 78.3809 71.9238 78.3118 72.0215 78.24Z" fill="#F48C7F"/>
<path d="M53.9131 48.8226C53.9131 48.8226 57.2434 50.4151 58.8851 60.3312L53.2399 61.9076L50.8907 55.5161L53.9131 48.8226Z" fill="#F47458"/>
<path d="M46.3028 72.1805C46.3028 72.1805 43.4342 76.495 42.7513 80.0657C42.0861 83.5434 43.1918 94.0422 42.0361 98.9096C40.069 100.735 36.679 102.862 35.1076 105.311C33.3267 108.086 28.1799 115.124 28.1799 115.124L31.1532 117.349L48.0189 101.694L54.8467 80.809L57.1896 74.7015L46.3028 72.1805Z" fill="#50BFA5"/>
<path d="M48.6247 47.6325C48.6247 47.6325 44.8269 47.3906 43.3243 49.0272C41.8219 50.6638 46.6573 63.6097 46.9305 65.6926C47.2037 67.7753 44.689 71.9286 44.689 71.9286C44.689 71.9286 55.1414 76.8226 57.6912 75.1364C57.6912 75.1364 57.2825 58.4439 57.0094 56.956C56.7361 55.4682 54.4595 49.4177 53.9131 48.8225C53.3667 48.2274 48.6247 47.6325 48.6247 47.6325Z" fill="#F7CC7F"/>
<path d="M49.889 42.5612C49.889 42.5612 49.8693 42.6729 49.834 42.8631C49.6647 43.7756 49.0126 46.8025 48.5721 47.6346C48.0397 48.6402 50.3946 51.8476 52.6611 51.4562C53.3359 51.3396 52.0908 48.5092 52.1507 48.2094C52.2652 47.6355 52.4205 46.8525 52.5795 46.0497C52.6691 45.5968 52.7599 45.1376 52.8452 44.7061C53.0876 43.4796 53.2854 42.4766 53.2854 42.4766L49.889 42.5612Z" fill="#F7A491"/>
<path d="M49.834 42.8631C49.8693 42.6729 49.889 42.5612 49.889 42.5612L53.2854 42.4766C53.2854 42.4766 53.0876 43.4796 52.8452 44.7061C52.7604 45.1352 52.6701 45.5917 52.5809 46.0422C52.0566 45.965 51.5087 45.7103 50.9593 45.2297C50.3604 44.7058 49.9679 44.0763 49.731 43.4041C49.7728 43.1896 49.8078 43.0047 49.834 42.8631Z" fill="#F47458"/>
<path d="M52.1749 34.8465C52.1749 34.8465 50.5741 34.6617 49.5706 35.9586C48.5672 37.2555 47.4857 41.2662 49.9784 43.4468C52.4711 45.6274 54.934 43.1591 55.2992 40.5421C55.6644 37.9251 55.8064 34.752 52.1749 34.8465Z" fill="#F7A491"/>
<path d="M56.0366 40.5034C55.7391 41.0814 55.2397 41.4015 54.9212 41.2183C54.6026 41.0351 54.5856 40.418 54.8831 39.84C55.1806 39.262 55.6801 38.9419 55.9986 39.1251C56.3172 39.3083 56.3342 39.9254 56.0366 40.5034Z" fill="#F7A491"/>
<path d="M52.354 34.4177C52.354 34.4177 50.2154 38.2317 48.6854 38.408C47.1554 38.5842 46.9545 40.6108 46.9545 40.6108C46.9545 40.6108 47.5015 35.9409 49.0162 35.0404C50.5308 34.1398 52.354 34.4177 52.354 34.4177Z" fill="#B75742"/>
<path d="M49.0865 39.3663C49.2109 40.0435 48.9607 40.6647 48.5275 40.7536C48.0944 40.8426 47.6425 40.3655 47.518 39.6881C47.3936 39.0109 47.6438 38.3897 48.0769 38.3008C48.5101 38.2119 48.9621 38.689 49.0865 39.3663Z" fill="#F7A491"/>
<path d="M41.694 41.3003C41.694 41.3003 47.0554 47.0615 47.8524 49.3834C48.6496 51.7052 47.0754 55.0266 44.9015 55.1717C42.7276 55.3168 37.8899 44.9461 37.8899 44.9461L41.694 41.3003Z" fill="#FAE0B2"/>
<path d="M101.28 90.3057L100.899 91.692L103.222 92.426L103.299 91.8485L101.28 90.3057ZM101.388 91.5833L101.605 90.958L102.968 91.9638L101.388 91.5833Z" fill="#355389"/>
<path d="M109.058 85.5406L108.304 82.1406L103.784 84.9501L106.37 87.0359C106.37 87.0359 107.184 84.9155 109.058 85.5406Z" fill="#F47458"/>
<path d="M79.626 98.1943C79.626 98.1943 74.4068 100.529 68.6323 103.421C62.858 106.311 61.4699 106.033 60.6371 105.2C59.8042 104.365 59.7487 102.503 59.7487 102.503C59.7487 102.503 58.3884 104.477 59.0824 107.006C59.7764 109.536 61.7753 109.564 61.7753 109.564L63.2189 108.702L62.275 110.398C62.275 110.398 64.3154 111.468 66.2171 109.564C68.1188 107.66 68.5214 106.45 68.5214 106.45C68.5214 106.45 67.7718 109.397 67.0222 110.148C67.0222 110.148 69.132 111.093 70.3814 109.397C71.6306 107.701 72.1859 105.533 72.1859 105.533L71.7139 109.508C71.7139 109.508 73.6573 108.758 74.7122 105.672L74.1569 108.591C74.1569 108.591 76.1166 105.871 76.9135 102.839C77.7105 99.8066 79.3761 99.4731 79.3761 99.4731L79.626 98.1943Z" fill="#B75742"/>
<path d="M89.5783 108.384C89.5783 108.384 89.7684 114.772 85.4724 117.113C84.4281 117.682 82.744 119.756 83.076 120.899C83.3912 121.984 85.9606 124.212 85.9606 124.212C85.9606 124.212 87.7472 124.341 88.5543 126.353C88.6825 126.672 88.1023 126.593 88.1023 126.593L83.5513 126.597L79.626 119.95L79.8927 115.784L82.4467 109.298L87.3328 108.519L89.5783 108.384Z" fill="#B75742"/>
<path d="M111.052 104.372C111.052 104.372 116.885 113.149 118.159 115.053C119.048 116.382 119.048 118.048 119.048 118.048C119.048 118.048 118.799 120.718 118.271 121.246C118.189 121.329 118.054 121.389 117.884 121.431C116.547 121.764 115.356 120.501 115.734 119.175C115.909 118.561 116.049 117.999 116.049 117.77C116.049 117.159 115.772 117.103 115.772 117.103L109.331 113.385L107.221 107.207L111.052 104.372Z" fill="#B75742"/>
<path d="M106.822 106.311L105.768 114.661L106.267 124.158C106.267 124.158 108.322 124.658 108.932 125.715C109.543 126.771 109.432 126.938 109.432 126.938H104.546C104.546 126.938 100.548 117.417 100.548 116.361C100.548 115.304 99.4934 109.412 99.4934 108.633C99.4934 107.855 100.16 104.365 102.492 104.087C104.824 103.81 106.822 106.311 106.822 106.311Z" fill="#F47458"/>
<path d="M113.593 84.204L112.335 82.4991C112.335 82.4991 108.189 81.3131 106.412 83.0921C105.844 83.6606 105.207 84.4857 104.955 85.5742C104.823 86.1419 104.8 87.2963 104.81 88.3251C104.821 89.4781 104.588 90.2407 104.129 91.2798C103.311 92.5284 99.9309 95.1457 98.5834 95.474L99.5315 95.3506C99.5315 95.3506 97.7112 96.3164 96.2101 96.5737C90.3722 97.4918 81.5718 97.6599 79.6131 98.2203C77.2811 98.8874 75.8652 105.781 76.5037 109.256C77.1423 112.731 72.3933 111.338 71.2475 113.583C70.1658 115.703 74.3261 125.456 74.3261 125.456C74.3261 125.456 75.4025 126.769 75.5968 126.964H80.2978C80.2978 126.964 80.1498 123.925 77.7992 123.146C75.4487 122.368 75.7819 117.345 75.7819 117.345C75.7819 117.345 82.5002 118.272 85.8317 113.899C88.397 110.531 88.1528 109.624 87.9048 109.386C89.1347 110.069 97.7208 114.723 102.044 113.899C106.708 113.009 108.189 110.192 108.189 110.192L107.874 112.231C107.874 112.231 111.011 111.091 110.706 108.533C110.706 108.533 111.178 108.867 111.178 109.59C111.178 109.59 112.538 107.838 112.538 102.279C112.538 99.1771 112.427 91.319 112.427 91.319C112.427 91.319 118.004 90.2953 118.729 89.5691C119.221 89.0762 119.866 85.4771 119.866 85.4771L113.593 84.204Z" fill="#F47458"/>
<path d="M103.784 84.9502C103.784 84.9502 104.91 87.3932 106.076 87.7639C107.242 88.1344 108.304 82.1407 108.304 82.1407C108.304 82.1407 106.669 81.5114 105.27 82.9113C104.718 83.4644 103.784 84.9502 103.784 84.9502Z" fill="#B75742"/>
<path d="M107.36 107.75C105.967 109.366 107.244 107.884 106.29 108.995C106.092 107.034 106.71 104.587 107.22 102.647C106.352 103.579 105.196 105.434 104.65 106.225C105.634 104.526 105.385 101.246 105.191 99.3188C105.186 99.3254 104.056 100.663 103.593 101.217C103.502 100.343 103.352 98.411 103.65 97.5646C103.955 96.696 104.842 95.678 105.504 95.0437C104.762 95.6602 103.842 96.6137 103.483 97.502C102.989 98.7227 103.345 101.755 103.355 101.973C105.007 100.099 103.88 101.375 104.915 100.195C105.023 101.82 105.183 105.197 104.429 106.543C105.317 105.981 106.157 104.764 106.667 103.835C105.334 107.283 106.198 109.304 106.2 109.358C106.194 109.366 106.272 109.264 107.327 107.894C107.385 108.106 107.505 108.557 107.517 108.777C107.518 108.696 107.411 108.002 107.36 107.75Z" fill="#B75742"/>
<path d="M103.723 90.958L102.968 92.545C102.968 92.545 103.688 97.9177 112.502 97.3195L112.791 95.0436C112.791 95.0436 104.755 94.7638 103.723 90.958Z" fill="#184655"/>
<path d="M75.677 78.6202L75.3953 79.2085L101.323 91.6595L101.605 91.0712L75.677 78.6202Z" fill="#184655"/>
<path d="M75.8138 78.9967L75.1072 78.2691L71.068 76.7947L66.5016 78.9967L71.8179 84.3833L72.2028 83.0744L68.8636 79.758L71.5157 78.018L71.9104 78.248L73.2889 79.0511L75.8138 78.9967Z" fill="#FAE0B2"/>
<path d="M78.4576 81.9996C78.4576 84.0716 76.7801 85.7512 74.711 85.7512C72.6419 85.7512 70.9645 84.0716 70.9645 81.9996C70.9645 79.9277 72.6419 78.2482 74.711 78.2482C76.7801 78.2482 78.4576 79.9277 78.4576 81.9996Z" fill="#F7CC7F"/>
<path d="M76.6155 81.9522C76.6155 83.0955 75.6899 84.0224 74.5482 84.0224C73.4063 84.0224 72.4807 83.0955 72.4807 81.9522C72.4807 80.809 73.4063 79.8821 74.5482 79.8821C75.6899 79.8821 76.6155 80.809 76.6155 81.9522Z" fill="#FAE0B2"/>
<path d="M70.9645 75.7344C70.9645 75.7344 72.1228 77.895 72.0031 78.3019C71.9381 78.5225 70.1105 79.812 69.0466 79.812C67.9827 79.812 69.2471 77.5184 69.4744 77.7461C69.7018 77.9738 69.5558 78.4869 69.5558 78.4869C69.5558 78.4869 69.7493 76.9068 70.0038 76.6519C70.2583 76.3971 70.3554 76.9374 70.3554 76.9374C70.3554 76.9374 69.9738 75.5917 70.3554 75.4693C70.7369 75.347 70.9645 75.7344 70.9645 75.7344Z" fill="#F79C8D"/>
</svg>
