<svg width="85" height="85" viewBox="0 0 85 85" fill="none" xmlns="http://www.w3.org/2000/svg">
<circle cx="42.5" cy="42.5" r="42.5" fill="#009FDF"/>
<path d="M35.8594 38.0729C35.8594 36.7595 36.2488 35.4756 36.9785 34.3836C37.7082 33.2915 38.7453 32.4404 39.9587 31.9378C41.1722 31.4352 42.5074 31.3037 43.7955 31.5599C45.0837 31.8161 46.2669 32.4486 47.1956 33.3773C48.1243 34.306 48.7568 35.4892 49.013 36.7774C49.2693 38.0656 49.1378 39.4008 48.6351 40.6142C48.1325 41.8276 47.2814 42.8647 46.1893 43.5944C45.0973 44.3241 43.8134 44.7135 42.5 44.7135V46.9271M62.4219 42.5C62.4219 53.5025 53.5025 62.4219 42.5 62.4219C31.4975 62.4219 22.5781 53.5025 22.5781 42.5C22.5781 31.4975 31.4975 22.5781 42.5 22.5781C53.5025 22.5781 62.4219 31.4975 62.4219 42.5Z" stroke="white" stroke-width="3" stroke-linecap="round" stroke-linejoin="round"/>
<ellipse cx="42.4997" cy="53.5677" rx="2.21354" ry="2.21354" fill="white"/>
</svg>
