<!-- icon666.com - MILLIONS vector ICONS FREE --><svg viewBox="0 0 48 48" xmlns="http://www.w3.org/2000/svg"><g id="Layer_31" data-name="Layer 31"><path d="m39 33h-1.172a2 2 0 0 0 -1.414.586l-2.828 2.828a2 2 0 0 1 -1.414.586h-9.548a3.97 3.97 0 0 1 -2.5-.889 4.947 4.947 0 0 0 -7.1.889h-.024v8.62a3.972 3.972 0 0 0 3 1.38h13.343a4 4 0 0 0 2.829-1.172l8.828-8.828v-2a2 2 0 0 0 -2-2z" fill="#f7cd59" style="fill: rgb(234, 215, 164);"></path><path d="m32.172 42.828a4 4 0 0 1 -2.829 1.172h-13.343a3.972 3.972 0 0 1 -3-1.38v3a3.972 3.972 0 0 0 3 1.38h13.343a4 4 0 0 0 2.829-1.172l8.828-8.828v-2a1.99 1.99 0 0 0 -.18-.82z" fill="#eab736"></path><path d="m1 35h8v12h-8z" fill="#5b5b5b"></path><path d="m4 40v-5h-3v12h8v-3h-1a4 4 0 0 1 -4-4z" fill="#3d3d3d"></path><path d="m9 35h4v12h-4z" fill="#abd5ef"></path><path d="m9 44h4v3h-4z" fill="#79c4e2"></path><rect fill="#eab736" height="4" rx="2" width="9" x="23" y="37"></rect><circle cx="24" cy="19" fill="#f7cd59" r="12" style="fill: rgb(234, 215, 164);"></circle><path d="m24 7a11.967 11.967 0 0 0 -9.419 4.581 11.988 11.988 0 0 1 16.838 16.838 11.991 11.991 0 0 0 -7.419-21.419z" fill="#fcdb8b"></path><path d="m27 28a11.991 11.991 0 0 1 -9.847-18.847 11.995 11.995 0 1 0 16.694 16.694 11.93 11.93 0 0 1 -6.847 2.153z" fill="#eab736"></path><path d="m5 13-4 4h2v4a2 2 0 0 0 2 2 2 2 0 0 0 2-2v-4h2z" fill="#91e2b2" style="fill: rgb(136, 221, 170);"></path><path d="m43 1-4 4h2v4a2 2 0 0 0 2 2 2 2 0 0 0 2-2v-4h2z" fill="#91e2b2" style="fill: rgb(136, 221, 170);"></path><path d="m39 32h-1.172a2.978 2.978 0 0 0 -2.121.879l-2.828 2.828a1 1 0 0 1 -.707.293h-9.548a2.979 2.979 0 0 1 -1.874-.665 5.925 5.925 0 0 0 -6.783-.5.985.985 0 0 0 -.967-.835h-12a1 1 0 0 0 -1 1v12a1 1 0 0 0 1 1h12a.984.984 0 0 0 .848-.5 4.924 4.924 0 0 0 2.152.5h13.343a4.969 4.969 0 0 0 3.536-1.465l8.828-8.828a1 1 0 0 0 .293-.707v-2a3 3 0 0 0 -3-3zm-27 14h-2v-7a1 1 0 0 0 -2 0v7h-6v-10h10zm28-9.414-8.535 8.535a2.98 2.98 0 0 1 -2.122.879h-13.343a2.931 2.931 0 0 1 -2-.784v-7.835a3.951 3.951 0 0 1 3-1.381 3.91 3.91 0 0 1 2.489.888 4.991 4.991 0 0 0 3.135 1.112h7.376a1 1 0 0 1 0 2h-7a1 1 0 0 0 0 2h7a2.981 2.981 0 0 0 2.8-4.068 2.975 2.975 0 0 0 1.5-.811l2.828-2.828a1 1 0 0 1 .7-.293h1.172a1 1 0 0 1 1 1z" fill="#000000"></path><path d="m22 24a1 1 0 0 1 -1-1 1 1 0 0 0 -2 0 3 3 0 0 0 3 3h1v1a1 1 0 0 0 2 0v-1h1a3 3 0 0 0 3-3v-2a3 3 0 0 0 -3-3h-1v-4h1a1 1 0 0 1 1 1 1 1 0 0 0 2 0 3 3 0 0 0 -3-3h-1v-1a1 1 0 0 0 -2 0v1h-1a3 3 0 0 0 -3 3v2a3 3 0 0 0 3 3h1v4zm0-6a1 1 0 0 1 -1-1v-2a1 1 0 0 1 1-1h1v4zm3 2h1a1 1 0 0 1 1 1v2a1 1 0 0 1 -1 1h-1z" fill="#000000"></path><path d="m24 32a13 13 0 1 0 -13-13 13.015 13.015 0 0 0 13 13zm0-24a11 11 0 1 1 -11 11 11.013 11.013 0 0 1 11-11z" fill="#000000"></path><path d="m1 18h1v3a3 3 0 0 0 6 0v-3h1a1 1 0 0 0 .707-1.707l-4-4a1 1 0 0 0 -1.414 0l-4 4a1 1 0 0 0 .707 1.707zm4-3.586 1.649 1.649a1 1 0 0 0 -.649.937v4a1 1 0 0 1 -2 0v-4a1 1 0 0 0 -.649-.937z" fill="#000000"></path><path d="m47.707 4.293-4-4a1 1 0 0 0 -1.414 0l-4 4a1 1 0 0 0 .707 1.707h1v3a3 3 0 0 0 6 0v-3h1a1 1 0 0 0 .707-1.707zm-3.707.707v4a1 1 0 0 1 -2 0v-4a1 1 0 0 0 -.649-.937l1.649-1.649 1.649 1.649a1 1 0 0 0 -.649.937z" fill="#000000"></path><path d="m13 4h1v1a1 1 0 0 0 2 0v-1h1a1 1 0 0 0 0-2h-1v-1a1 1 0 0 0 -2 0v1h-1a1 1 0 0 0 0 2z" fill="#000000"></path><path d="m45 20h-1v-1a1 1 0 0 0 -2 0v1h-1a1 1 0 0 0 0 2h1v1a1 1 0 0 0 2 0v-1h1a1 1 0 0 0 0-2z" fill="#000000"></path></g></svg>